<svg width="81" height="77" viewBox="0 0 81 77" fill="none" xmlns="http://www.w3.org/2000/svg">
<path d="M42.5069 49.175C39.5963 49.175 36.8049 48.0503 34.7468 46.0484C32.6887 44.0464 31.5325 41.3312 31.5325 38.5C31.5325 35.6688 32.6887 32.9536 34.7468 30.9516C36.8049 28.9497 39.5963 27.825 42.5069 27.825C45.4175 27.825 48.2089 28.9497 50.267 30.9516C52.3252 32.9536 53.4814 35.6688 53.4814 38.5C53.4814 41.3312 52.3252 44.0464 50.267 46.0484C48.2089 48.0503 45.4175 49.175 42.5069 49.175ZM65.8042 41.4585C65.9296 40.4825 66.0236 39.5065 66.0236 38.5C66.0236 37.4935 65.9296 36.487 65.8042 35.45L72.4202 30.4785C73.0159 30.021 73.1727 29.1975 72.7965 28.5265L66.5253 17.9735C66.1491 17.3025 65.3025 17.028 64.6126 17.3025L56.8051 20.3525C55.1746 19.163 53.4814 18.126 51.506 17.3635L50.3458 9.28101C50.2821 8.92177 50.0898 8.59606 49.8028 8.36159C49.5158 8.12712 49.1528 7.99902 48.778 8.00001H36.2358C35.4519 8.00001 34.7934 8.54901 34.668 9.28101L33.5079 17.3635C31.5325 18.126 29.8393 19.163 28.2088 20.3525L20.4012 17.3025C19.7114 17.028 18.8648 17.3025 18.4885 17.9735L12.2174 28.5265C11.8098 29.1975 11.9979 30.021 12.5937 30.4785L19.2097 35.45C19.0843 36.487 18.9902 37.4935 18.9902 38.5C18.9902 39.5065 19.0843 40.4825 19.2097 41.4585L12.5937 46.5215C11.9979 46.979 11.8098 47.8025 12.2174 48.4735L18.4885 59.0265C18.8648 59.6975 19.7114 59.9415 20.4012 59.6975L28.2088 56.617C29.8393 57.837 31.5325 58.874 33.5079 59.6365L34.668 67.719C34.7934 68.451 35.4519 69 36.2358 69H48.778C49.5619 69 50.2204 68.451 50.3458 67.719L51.506 59.6365C53.4814 58.8435 55.1746 57.837 56.8051 56.617L64.6126 59.6975C65.3025 59.9415 66.1491 59.6975 66.5253 59.0265L72.7965 48.4735C73.1727 47.8025 73.0159 46.979 72.4202 46.5215L65.8042 41.4585Z" fill="url(#paint0_linear_206_173)"/>
<circle cx="42.5" cy="38.5" r="5.5" stroke="url(#paint1_linear_206_173)" stroke-width="2"/>
<circle cx="5.5" cy="38.5" r="5" stroke="url(#paint2_linear_206_173)"/>
<mask id="path-4-inside-1_206_173" fill="white">
<path d="M42.5 0C34.2501 0 26.2184 2.65003 19.5884 7.55959C12.9584 12.4691 8.0808 19.3786 5.67434 27.2697L9.35311 28.3915C11.5192 21.2887 15.9095 15.0696 21.8772 10.6504C27.8449 6.23134 35.0743 3.84604 42.5 3.84604V0Z"/>
</mask>
<path d="M42.5 0C34.2501 0 26.2184 2.65003 19.5884 7.55959C12.9584 12.4691 8.0808 19.3786 5.67434 27.2697L9.35311 28.3915C11.5192 21.2887 15.9095 15.0696 21.8772 10.6504C27.8449 6.23134 35.0743 3.84604 42.5 3.84604V0Z" stroke="url(#paint3_linear_206_173)" stroke-width="4" mask="url(#path-4-inside-1_206_173)"/>
<mask id="path-5-inside-2_206_173" fill="white">
<path d="M5.56725 49.373C7.91253 57.3393 12.7707 64.3337 19.4169 69.3127C26.0631 74.2916 34.1411 76.9882 42.4454 77C50.7498 77.0117 58.8353 74.3381 65.4956 69.378C72.1559 64.4179 77.0339 57.4373 79.4018 49.4777L75.7154 48.381C73.5841 55.5455 69.1934 61.8288 63.1984 66.2934C57.2035 70.758 49.9256 73.1645 42.4509 73.1539C34.9761 73.1433 27.7051 70.7162 21.7229 66.2346C15.7406 61.753 11.3677 55.4573 9.25672 48.2868L5.56725 49.373Z"/>
</mask>
<path d="M5.56725 49.373C7.91253 57.3393 12.7707 64.3337 19.4169 69.3127C26.0631 74.2916 34.1411 76.9882 42.4454 77C50.7498 77.0117 58.8353 74.3381 65.4956 69.378C72.1559 64.4179 77.0339 57.4373 79.4018 49.4777L75.7154 48.381C73.5841 55.5455 69.1934 61.8288 63.1984 66.2934C57.2035 70.758 49.9256 73.1645 42.4509 73.1539C34.9761 73.1433 27.7051 70.7162 21.7229 66.2346C15.7406 61.753 11.3677 55.4573 9.25672 48.2868L5.56725 49.373Z" stroke="url(#paint4_linear_206_173)" stroke-width="4" mask="url(#path-5-inside-2_206_173)"/>
<defs>
<linearGradient id="paint0_linear_206_173" x1="42.5" y1="8" x2="42.5" y2="69" gradientUnits="userSpaceOnUse">
<stop stop-color="#FF2E8B"/>
<stop offset="1" stop-color="#761641"/>
</linearGradient>
<linearGradient id="paint1_linear_206_173" x1="42.5" y1="32" x2="42.5" y2="45" gradientUnits="userSpaceOnUse">
<stop stop-color="#FF2E8B"/>
<stop offset="1" stop-color="#991B53"/>
</linearGradient>
<linearGradient id="paint2_linear_206_173" x1="5.5" y1="33" x2="5.5" y2="44" gradientUnits="userSpaceOnUse">
<stop stop-color="#FF2E8B"/>
<stop offset="1" stop-color="#B22161"/>
</linearGradient>
<linearGradient id="paint3_linear_206_173" x1="42.5" y1="0" x2="42.5" y2="77" gradientUnits="userSpaceOnUse">
<stop stop-color="#FF2E8B"/>
<stop offset="1" stop-color="#B22161"/>
</linearGradient>
<linearGradient id="paint4_linear_206_173" x1="42.5" y1="0" x2="42.5" y2="77" gradientUnits="userSpaceOnUse">
<stop stop-color="#FF2E8B"/>
<stop offset="1" stop-color="#B22161"/>
</linearGradient>
</defs>
</svg>
